<?xml version="1.0" encoding="utf-8"?>
<!-- Generator: Adobe Illustrator 21.0.0, SVG Export Plug-In . SVG Version: 6.00 Build 0)  -->
<svg version="1.1" id="Calque_1" xmlns="http://www.w3.org/2000/svg" xmlns:xlink="http://www.w3.org/1999/xlink" x="0px" y="0px"
	 viewBox="0 0 44 44" style="enable-background:new 0 0 44 44;" xml:space="preserve">
<style type="text/css">
	.st0{fill:#25438E;}
</style>
<g>
	<path class="st0" d="M41.1,21.1c-0.6,0-1.1,0.5-1.1,1.1c0,3.3-1.3,6.4-3.7,8.7l0,0C36.1,31,36,31.3,36,31.5v0.1l0,0v10.2H14.6v-7.7
		c0-0.1,0-0.1,0-0.2v-0.1v-0.1c0,0,0-0.1-0.1-0.1v-0.1c0-0.1-0.1-0.1-0.1-0.2c-3.5-3.5-6.1-7.6-7.8-12.1c0-0.1-0.1-0.2-0.1-0.2
		c-0.1-0.5-0.2-1-0.2-1.5c0-2.9,2.4-5.3,5.3-5.3h11.9c1.2,0,2.2,1,2.2,2.2s-1,2.2-2.2,2.2H12.2c-0.6,0-1.1,0.5-1.1,1.1
		s0.5,1.1,1.1,1.1h11.1c2.4,0,4.4-2,4.4-4.4s-2-4.4-4.4-4.4H11.4c-4.1,0-7.5,3.4-7.5,7.5c0,1.1,0.2,2.1,0.7,3.1
		c0,0.1,0.1,0.2,0.1,0.2c1.8,4.4,4.4,8.3,7.7,11.7v8.4c0,0.6,0.5,1.1,1.1,1.1H37c0.6,0,1.1-0.5,1.1-1.1V32.1c2.6-2.7,4-6.2,4-9.9
		C42.1,21.6,41.7,21.1,41.1,21.1z"/>
	<path class="st0" d="M23.5,21.6c-0.5,0.4-0.6,1-0.2,1.5c1,1.3,1.7,2.8,2,4.4c0.1,0.5,0.6,0.9,1,0.9c0.1,0,0.1,0,0.2,0
		c0.6-0.1,1-0.7,0.8-1.3c-0.4-1.9-1.2-3.7-2.4-5.3C24.6,21.3,24,21.3,23.5,21.6z"/>
	<path class="st0" d="M12.2,10.9c0.6,0,1.1-0.5,1.1-1.1V7.1c0-1.4,1.1-2.5,2.5-2.5s2.5,1.1,2.5,2.5v3c0,0.6,0.5,1.1,1.1,1.1
		s1.1-0.5,1.1-1.1v-3c0-2.6-2.1-4.7-4.7-4.7s-4.7,2.1-4.7,4.7v2.8C11.2,10.4,11.6,10.9,12.2,10.9z"/>
	<path class="st0" d="M21.3,2.9c0.5-0.5,1.1-0.7,1.8-0.7c1.4,0,2.5,1.1,2.5,2.5V10c0,0.6,0.5,1.1,1.1,1.1s1.1-0.5,1.1-1.1V4.7
		C27.7,2.1,25.6,0,23,0c-1.2,0-2.4,0.5-3.3,1.4c-0.4,0.4-0.4,1.1,0,1.5C20.2,3.3,20.8,3.3,21.3,2.9z"/>
	<path class="st0" d="M30.6,17.7h-0.7c-0.6,0-1.1,0.5-1.1,1.1s0.5,1.1,1.1,1.1h0.7c2.4,0,4.3-1.9,4.3-4.3V6.7c0-2.4-1.9-4.3-4.3-4.3
		h-0.7c-0.6,0-1.1,0.5-1.1,1.1s0.5,1.1,1.1,1.1h0.7c1.2,0,2.2,1,2.2,2.2v8.8C32.8,16.7,31.8,17.7,30.6,17.7z"/>
	<path class="st0" d="M37.8,4.4h-0.7c-0.6,0-1.1,0.5-1.1,1.1s0.5,1.1,1.1,1.1h0.7c1.2,0,2.2,1,2.2,2.2v5.1c0,1.2-1,2.2-2.2,2.2h-0.7
		c-0.6,0-1.1,0.5-1.1,1.1s0.5,1.1,1.1,1.1h0.7c2.4,0,4.3-1.9,4.3-4.3V8.7C42.1,6.4,40.2,4.4,37.8,4.4z"/>
</g>
</svg>
