<?xml version="1.0" encoding="utf-8"?>
<!-- Generator: Adobe Illustrator 21.0.2, SVG Export Plug-In . SVG Version: 6.00 Build 0)  -->
<svg version="1.1" id="Calque_1" xmlns="http://www.w3.org/2000/svg" xmlns:xlink="http://www.w3.org/1999/xlink" x="0px" y="0px"
	 viewBox="0 0 44 44" style="enable-background:new 0 0 44 44;" xml:space="preserve">
<style type="text/css">
	.st0{fill:#ffffff;}
</style>
<g>
	<g>
		<path class="st0" d="M22,44C9.9,44,0,34.1,0,22S9.9,0,22,0s22,9.9,22,22S34.1,44,22,44z M22,2.1c-10.9,0-19.9,9-19.9,19.9
			s9,19.9,19.9,19.9s19.9-9,19.9-19.9S32.9,2.1,22,2.1z"/>
	</g>
	<g>
		<path class="st0" d="M22,37.3c-8.5,0-15.3-6.9-15.3-15.3c0-8.5,6.9-15.3,15.3-15.3S37.3,13.5,37.3,22S30.5,37.3,22,37.3z M22,8.8
			C14.7,8.8,8.8,14.7,8.8,22S14.7,35.2,22,35.2S35.2,29.3,35.2,22S29.3,8.8,22,8.8z M26.7,30.5c-0.3,0-0.6-0.1-0.9-0.2l-3.8-2
			l-3.8,2c-0.6,0.3-1.4,0.3-2-0.1s-0.9-1.1-0.7-1.8l0.7-4.3l-3.1-3c-0.5-0.5-0.7-1.2-0.5-1.9c0.2-0.7,0.8-1.2,1.5-1.3l4.3-0.6
			l1.9-3.9c0.3-0.6,1-1,1.7-1s1.3,0.4,1.7,1l1.9,3.9l4.3,0.6c0.7,0.1,1.3,0.6,1.5,1.3c0.2,0.7,0,1.4-0.5,1.9l-3.1,3l0.7,4.3
			c0.1,0.7-0.2,1.4-0.7,1.8C27.5,30.3,27.1,30.5,26.7,30.5z M15,19.9l2.8,2.7c0.4,0.4,0.6,1,0.5,1.6L17.6,28l3.5-1.8
			c0.5-0.3,1.2-0.3,1.7,0l3.5,1.8l-0.7-3.8c-0.1-0.6,0.1-1.2,0.5-1.6l2.8-2.7L25,19.3c-0.6-0.1-1.1-0.5-1.4-1L22,14.8l-1.7,3.5
			c-0.3,0.5-0.8,0.9-1.4,1L15,19.9z"/>
	</g>
</g>
</svg>
