<?xml version="1.0" encoding="utf-8"?>
<!-- Generator: Adobe Illustrator 21.0.2, SVG Export Plug-In . SVG Version: 6.00 Build 0)  -->
<svg version="1.1" id="Calque_1" xmlns="http://www.w3.org/2000/svg" xmlns:xlink="http://www.w3.org/1999/xlink" x="0px" y="0px"
	 viewBox="0 0 44 44" style="enable-background:new 0 0 44 44;" xml:space="preserve">
<style type="text/css">
	.st0{fill:#1D1D1B;stroke-width:5;stroke-linecap:round;stroke-linejoin:round;stroke-miterlimit:10;}
	.st1{fill:#1D1D1B;}
</style>
<path class="st0" d="M332.4,222.6l-33.9-33.9l0,0c4.7-4.7,7.6-11.1,7.6-18.3c0-14.3-11.6-25.8-25.8-25.8s-25.8,11.6-25.8,25.8
	c0,14.3,11.6,25.8,25.8,25.8"/>
<g>
	<path class="st1" d="M42.7,44c-0.3,0-0.7-0.1-0.9-0.4L23.8,25.7c-0.1-0.1-0.2-0.2-0.3-0.4c-0.3-0.5-0.1-1.2,0.3-1.6
		c2.3-2.3,3.6-5.4,3.6-8.7c0-6.8-5.6-12.4-12.4-12.4C8.2,2.7,2.7,8.2,2.7,15c0,6.8,5.6,12.4,12.4,12.4c0.7,0,1.3,0.6,1.3,1.3
		c0,0.7-0.6,1.3-1.3,1.3c-8.3,0-15-6.7-15-15S6.7,0,15,0s15,6.7,15,15c0,3.6-1.2,6.9-3.5,9.6l17.1,17.1c0.5,0.5,0.5,1.4,0,1.9
		C43.4,43.9,43,44,42.7,44z"/>
</g>
</svg>
