<?xml version="1.0" encoding="utf-8"?>
<!-- Generator: Adobe Illustrator 21.0.2, SVG Export Plug-In . SVG Version: 6.00 Build 0)  -->
<svg version="1.1" id="Calque_1" xmlns="http://www.w3.org/2000/svg" xmlns:xlink="http://www.w3.org/1999/xlink" x="0px" y="0px"
	 viewBox="0 0 44 44" style="enable-background:new 0 0 44 44;" xml:space="preserve">
<style type="text/css">
	.st0{fill:#1D1D1B;}
</style>
<g>
	<path class="st0" d="M30.7,0H13.3C6,0,0,6,0,13.3v17.4C0,38,6,44,13.3,44h17.4c0.7,0,1.3-0.6,1.3-1.3s-0.6-1.3-1.3-1.3H13.3
		c-5.9,0-10.6-4.8-10.6-10.6V13.3c0-5.9,4.8-10.6,10.6-10.6h17.4c5.9,0,10.6,4.8,10.6,10.6v17.4c0,0.7,0.6,1.3,1.3,1.3
		s1.3-0.6,1.3-1.3V13.3C44,6,38,0,30.7,0z"/>
	<path class="st0" d="M22,29.8c-4.3,0-7.8-3.5-7.8-7.8c0-0.7-0.6-1.3-1.3-1.3s-1.3,0.6-1.3,1.3c0,5.8,4.7,10.5,10.5,10.5
		S32.5,27.8,32.5,22S27.8,11.5,22,11.5c-2.5,0-5,0.9-6.9,2.6c-0.6,0.5-0.6,1.3-0.1,1.9c0.5,0.6,1.3,0.6,1.9,0.1
		c1.4-1.2,3.3-1.9,5.1-1.9c4.3,0,7.8,3.5,7.8,7.8S26.3,29.8,22,29.8z"/>
	<path class="st0" d="M33.7,8c-1.3,0-2.3,1-2.3,2.3s1,2.3,2.3,2.3s2.3-1,2.3-2.3S35,8,33.7,8z M33.7,10.7c-0.2,0-0.4-0.2-0.4-0.4
		s0.2-0.4,0.4-0.4s0.4,0.2,0.4,0.4C34.1,10.5,33.9,10.7,33.7,10.7z"/>
</g>
</svg>
