<?xml version="1.0" encoding="utf-8"?>
<!-- Generator: Adobe Illustrator 21.0.2, SVG Export Plug-In . SVG Version: 6.00 Build 0)  -->
<svg version="1.1" id="Calque_1" xmlns="http://www.w3.org/2000/svg" xmlns:xlink="http://www.w3.org/1999/xlink" x="0px" y="0px"
	 viewBox="0 0 138 138" style="enable-background:new 0 0 138 138;" xml:space="preserve">
<style type="text/css">
	.st0{fill:#ffffff;}
</style>
<g>
	<g>
		<path class="st0" d="M69,138c-38,0-69-30.9-69-69C0,31,30.9,0,69,0c38,0,69,30.9,69,69C138,107.1,107,138,69,138z M69,8.4
			C35.5,8.4,8.3,35.6,8.3,69s27.2,60.7,60.7,60.7s60.7-27.2,60.7-60.7S102.4,8.4,69,8.4z"/>
	</g>
	<g>
		<path class="st0" d="M53,100.9c-1.4,0-2.8-0.7-3.6-2.1c-1.1-2-0.5-4.5,1.5-5.7L92.7,69L57.1,48.5V69c0,2.3-1.9,4.2-4.2,4.2
			s-4.2-1.9-4.2-4.2V41.3c0-1.5,0.8-2.9,2.1-3.6c1.3-0.7,2.9-0.7,4.2,0l48,27.7c1.3,0.7,2.1,2.1,2.1,3.6s-0.8,2.9-2.1,3.6l-48,27.7
			C54.4,100.7,53.7,100.9,53,100.9z"/>
	</g>
</g>
</svg>
