<?xml version="1.0" encoding="utf-8"?>
<!-- Generator: Adobe Illustrator 21.0.0, SVG Export Plug-In . SVG Version: 6.00 Build 0)  -->
<svg version="1.1" id="Calque_1" xmlns="http://www.w3.org/2000/svg" xmlns:xlink="http://www.w3.org/1999/xlink" x="0px" y="0px"
	 viewBox="0 0 50 52" style="enable-background:new 0 0 50 52;" xml:space="preserve">
<style type="text/css">
	.st0{fill:#25438E;}
</style>
<g>
	<g>
		<path class="st0" d="M36.2,39.5c-0.6,0-1.3-0.4-1.6-1c-2.1-4.1-6.2-6.7-10.7-6.7c-0.5,0-1.5,0.1-2,0.2c-0.6,0.1-1.2-0.2-1.6-0.6
			c-2.3-2.7-5.6-4.2-9-4.2c-3,0-5.9,1.1-8.1,3.2C2.5,31,1.4,31,0.7,30.3C0,29.6,0,28.5,0.8,27.8c2.9-2.7,6.6-4.2,10.5-4.2
			c4.2,0,8.2,1.7,11.1,4.8c0.5,0,1.1-0.1,1.5-0.1c5.8,0,11.1,3.3,13.8,8.6c0.4,0.9,0.1,1.9-0.8,2.4C36.7,39.4,36.5,39.5,36.2,39.5z"
			/>
	</g>
	<g>
		<path class="st0" d="M13.6,52c-0.3,0-0.7-0.1-1-0.3c-0.8-0.5-1.1-1.6-0.5-2.5l7-11.1c0.5-0.8,1.6-1.1,2.5-0.5
			c0.8,0.5,1.1,1.6,0.5,2.5l-7,11.1C14.7,51.7,14.1,52,13.6,52z"/>
	</g>
	<g>
		<path class="st0" d="M32.7,49.4c-2.7,0-5.4-0.5-7.9-1.5c-0.9-0.4-1.4-1.4-1-2.3c0.4-0.9,1.4-1.4,2.3-1c2.1,0.8,4.3,1.2,6.6,1.2
			c5.2,0,10.1-2.2,13.6-6.1C45.7,29.3,42.1,19.4,35.9,11L25.7,6c-0.8,0.5-2.1,1.4-3,2.6c0.7,1.1,2,2.9,3.9,4.2l1.2-1
			c0.6-0.5,1.6-0.6,2.2-0.1l0,0c0,0,1.2,0.8,2.5,0.7c0.9-0.1,1.7,0.5,1.9,1.4l2.2,10.4c0.1,0.3,0.1,0.5,0,0.8
			c-0.3,1.4-0.6,2.9-0.7,4.3c-0.1,1-1,1.7-2,1.6s-1.7-1-1.6-2c0.2-1.5,0.4-2.9,0.7-4.4l-1.9-8.6c-0.9-0.1-1.6-0.4-2.2-0.6l-1.2,1
			c-0.5,0.5-1.3,0.6-1.9,0.3c-4.7-2.2-7-7.1-7.1-7.3c-0.2-0.5-0.2-1.1,0.1-1.6c1.8-3.2,5.6-5.1,5.8-5.2c0.5-0.2,1.1-0.3,1.6,0
			L37.8,8c0.3,0.1,0.5,0.3,0.6,0.5c6.8,9,10.7,19.8,11.4,31.2c0.2,0.6,0.1,1.3-0.3,1.8C45.4,46.6,39.2,49.4,32.7,49.4z"/>
	</g>
</g>
</svg>
