<?xml version="1.0" encoding="utf-8"?>
<!-- Generator: Adobe Illustrator 21.0.0, SVG Export Plug-In . SVG Version: 6.00 Build 0)  -->
<svg version="1.1" id="Calque_1" xmlns="http://www.w3.org/2000/svg" xmlns:xlink="http://www.w3.org/1999/xlink" x="0px" y="0px"
	 viewBox="0 0 52 51" style="enable-background:new 0 0 52 51;" xml:space="preserve">
<style type="text/css">
	.st0{fill:#25438E;}
</style>
<g>
	<path class="st0" d="M26.2,48.6c-4.9,0-9.4-2.9-11.3-7.5c-0.1-0.1-0.2-0.3-0.3-0.4c-0.1-0.1-0.2-0.1-0.2-0.2
		c-0.1,0-0.1-0.1-0.1-0.1c-0.2-0.1-0.3-0.1-0.5-0.1H6.2V22.8H14c0.2,0,0.3,0,0.5-0.1c0.1-0.1,0.3-0.2,0.4-0.3c2.8-2.8,5.9-5,9.4-6.7
		c5.8-1.2,10-6.3,10-12.3c0-0.3,0-0.6,0-0.9c2.5,0.5,4.3,2.7,4.3,5.4c0,0.9-0.2,1.7-0.6,2.4l-3,4.6c-0.4,0.6-0.2,1.3,0.4,1.7
		c0.2,0.1,0.4,0.2,0.7,0.2c0.4,0,0.8-0.2,1-0.6l3-4.6l0,0c0,0,0-0.1,0.1-0.1c0.6-1.1,0.9-2.4,0.9-3.6c0-4.4-3.6-8-8-8
		c-0.1,0-0.2,0-0.3,0h-0.1h-0.1h-0.1c-0.1,0-0.2,0.1-0.2,0.1c-0.1,0-0.1,0.1-0.2,0.1C32,0.2,32,0.2,31.9,0.3c0,0.1-0.1,0.1-0.1,0.2
		s-0.1,0.1-0.1,0.2s0,0.2,0,0.2V1v0.1v0.1c0.1,0.7,0.2,1.4,0.2,2c0,4.8-3.4,9-8.2,9.9c0,0-0.1,0-0.1,0.1c-0.1,0-0.1,0-0.2,0
		c-3.6,1.7-6.9,4.1-9.8,6.9H5c-0.7,0-1.2,0.5-1.2,1.2v19.9c0,0.7,0.5,1.2,1.2,1.2h8c2.5,5,7.5,8.2,13.2,8.2c0.7,0,1.2-0.5,1.2-1.2
		S26.9,48.6,26.2,48.6z"/>
	<path class="st0" d="M25,31.6c-1.2,0.9-2.6,1.6-4.1,1.9c-0.7,0.1-1.1,0.8-0.9,1.5c0.1,0.6,0.6,0.9,1.2,0.9c0.1,0,0.2,0,0.3,0
		c1.8-0.4,3.5-1.2,5.1-2.3c0.5-0.4,0.7-1.2,0.3-1.7C26.3,31.4,25.6,31.2,25,31.6z"/>
	<path class="st0" d="M44.1,26.4H33.4c-0.8,0-1.6-0.4-2.1-1.1c-0.3-0.4-0.4-0.9-0.4-1.4c0-1.4,1.1-2.5,2.5-2.5h8.3
		c1.4,0,2.5,1.1,2.5,2.5c0,0.7,0.5,1.2,1.2,1.2s1.2-0.5,1.2-1.2c0-2.7-2.2-4.9-4.9-4.9h-8.3c-2.7,0-4.9,2.2-4.9,4.9
		c0,1,0.3,1.9,0.8,2.7c0.9,1.4,2.4,2.2,4.1,2.2h10.7c1.4,0,2.5,1.1,2.5,2.5c0,0.6-0.2,1.1-0.6,1.6c-0.4,0.5-0.3,1.3,0.2,1.7
		c0.2,0.2,0.5,0.3,0.8,0.3c0.4,0,0.7-0.2,0.9-0.5c0.7-0.9,1.1-2,1.1-3.1C49,28.6,46.8,26.4,44.1,26.4z"/>
	<path class="st0" d="M41.7,33.8h-8.3h-0.9c-1.4,0-2.5-1.1-2.5-2.5c0-0.4,0.1-0.7,0.2-1c0.3-0.6,0-1.3-0.6-1.6
		c-0.6-0.3-1.3,0-1.6,0.6c-0.3,0.6-0.4,1.3-0.4,2c0,2.7,2.2,4.9,4.9,4.9h0.9h8.3c1.4,0,2.5,1.1,2.5,2.5c0,0.7-0.3,1.3-0.7,1.7
		c-0.5,0.5-0.5,1.2,0,1.7c0.2,0.2,0.6,0.4,0.9,0.4s0.6-0.1,0.9-0.4c0.9-0.9,1.4-2.2,1.4-3.5C46.6,36,44.4,33.8,41.7,33.8z"/>
	<path class="st0" d="M39.6,41.2h-4.5h-1.7c-1.4,0-2.5-1.1-2.5-2.5c0-0.7-0.5-1.2-1.2-1.2s-1.2,0.5-1.2,1.2c0,2.7,2.2,4.9,4.9,4.9
		h1.7h4.5c1.4,0,2.5,1.1,2.5,2.5s-1.1,2.5-2.5,2.5h-4.5c-1.4,0-2.5-1.1-2.5-2.5c0-0.7-0.5-1.2-1.2-1.2s-1.2,0.5-1.2,1.2
		c0,2.7,2.2,4.9,4.9,4.9h4.5c2.7,0,4.9-2.2,4.9-4.9S42.3,41.2,39.6,41.2z"/>
</g>
</svg>
