<?xml version="1.0" encoding="utf-8"?>
<!-- Generator: Adobe Illustrator 21.0.0, SVG Export Plug-In . SVG Version: 6.00 Build 0)  -->
<svg version="1.1" id="Calque_1" xmlns="http://www.w3.org/2000/svg" xmlns:xlink="http://www.w3.org/1999/xlink" x="0px" y="0px"
	 viewBox="0 0 136 134" style="enable-background:new 0 0 136 134;" xml:space="preserve">
<style type="text/css">
	.st0{fill:#25438E;}
</style>
<g>
	<path class="st0" d="M47.3,134H10.8c-6,0-10.8-5.6-10.8-12.5v-109C0,5.6,4.8,0,10.8,0h47.3v19.4c0,1.8-1.5,3.3-3.3,3.3
		s-3.3-1.5-3.3-3.3V6.5H10.8c-2.3,0-4.2,2.7-4.2,6v108.9c0,3.3,1.9,6,4.2,6h36.6c2.3,0,4.2-2.7,4.2-6V76.3c0-3.3-1.9-6-4.2-6H25.8
		V19.4c0-1.8,1.5-3.3,3.3-3.3s3.3,1.5,3.3,3.3v44.4h15c5.9,0,10.8,5.6,10.8,12.5v45.2C58.1,128.4,53.3,134,47.3,134z"/>
</g>
<g>
	<path class="st0" d="M125.1,134H88.6c-6,0-10.8-5.6-10.8-12.5v-109C77.8,5.6,82.6,0,88.6,0h47.3v19.4c0,1.8-1.5,3.3-3.3,3.3
		s-3.3-1.5-3.3-3.3V6.5H88.6c-2.3,0-4.2,2.7-4.2,6v108.9c0,3.3,1.9,6,4.2,6h36.6c2.3,0,4.2-2.7,4.2-6V76.3c0-3.3-1.9-6-4.2-6h-21.6
		V19.4c0-1.8,1.5-3.3,3.3-3.3s3.3,1.5,3.3,3.3v44.4h15c5.9,0,10.8,5.6,10.8,12.5v45.2C135.9,128.4,131.1,134,125.1,134z"/>
</g>
</svg>
