<?xml version="1.0" encoding="utf-8"?>
<!-- Generator: Adobe Illustrator 21.0.0, SVG Export Plug-In . SVG Version: 6.00 Build 0)  -->
<svg version="1.1" id="Calque_1" xmlns="http://www.w3.org/2000/svg" xmlns:xlink="http://www.w3.org/1999/xlink" x="0px" y="0px"
	 viewBox="0 0 44 44" style="enable-background:new 0 0 44 44;" xml:space="preserve">
<style type="text/css">
	.st0{fill:#25438E;}
</style>
<g>
	<path class="st0" d="M22,16.2c4,0,7.2,3.2,7.2,7.2S26,30.7,22,30.7s-7.2-3.2-7.2-7.2S18,16.2,22,16.2 M22,14.1
		c-5.2,0-9.4,4.2-9.4,9.4s4.2,9.4,9.4,9.4s9.4-4.2,9.4-9.4S27.2,14.1,22,14.1L22,14.1z"/>
	<path class="st0" d="M10.5,2.7c2.2,0,3.9,1.8,3.9,3.9s-1.8,3.9-3.9,3.9S6.6,8.8,6.6,6.7S8.3,2.7,10.5,2.7 M10.5,0.6
		c-3.4,0-6.1,2.7-6.1,6.1s2.7,6.1,6.1,6.1s6.1-2.7,6.1-6.1S13.9,0.6,10.5,0.6L10.5,0.6z"/>
	<path class="st0" d="M33.5,2.7c2.2,0,3.9,1.8,3.9,3.9s-1.8,3.9-3.9,3.9s-3.9-1.8-3.9-3.9S31.3,2.7,33.5,2.7 M33.5,0.6
		c-3.4,0-6.1,2.7-6.1,6.1s2.7,6.1,6.1,6.1s6.1-2.7,6.1-6.1S36.8,0.6,33.5,0.6L33.5,0.6z"/>
	<g>
		<path class="st0" d="M30.1,32.2c-0.6-0.2-1.2,0.2-1.3,0.7c-0.2,0.6,0.2,1.2,0.7,1.3c3.2,0.9,5.6,3.7,6,7H8.6
			c0.5-3.7,3.3-6.6,7-7.2c0.6-0.1,1-0.6,0.9-1.2c-0.1-0.6-0.6-1-1.2-0.9c-5.1,0.8-8.9,5.2-8.9,10.4c0,0.6,0.5,1.1,1.1,1.1h29.2
			c0.6,0,1.1-0.5,1.1-1.1C37.7,37.7,34.5,33.5,30.1,32.2z"/>
		<path class="st0" d="M11.8,30.7c0.2,0.3,0.5,0.4,0.9,0.4c0.2,0,0.5-0.1,0.6-0.2c0.5-0.4,0.6-1,0.2-1.5L5,18.2c0,0,0,0,0-0.1
			c0,0,0-0.1-0.1-0.1c0,0-0.1,0-0.1-0.1c0,0-0.1,0-0.1-0.1c0,0-0.1,0-0.1-0.1H4.5H4.4H4.3H4.2c0,0,0,0-0.1,0H2.3
			C2.7,16,4.1,14.5,5.9,14c0.6-0.2,0.9-0.7,0.8-1.3c-0.2-0.6-0.7-0.9-1.3-0.8c-3.2,0.8-5.4,3.7-5.4,7C0,19.5,0.5,20,1.1,20h2.5
			L11.8,30.7z"/>
		<path class="st0" d="M38.6,11.9c-0.6-0.2-1.2,0.2-1.3,0.8c-0.2,0.6,0.2,1.2,0.8,1.3c1.9,0.5,3.3,2,3.7,3.8h-1.9c0,0,0,0-0.1,0
			h-0.1h-0.1h-0.1h-0.1c0,0-0.1,0-0.1,0.1c0,0-0.1,0-0.1,0.1c0,0-0.1,0-0.1,0.1c0,0,0,0.1-0.1,0.1c0,0,0,0-0.1,0.1l-8.5,11.2
			C30,30,30.1,30.6,30.6,31c0.2,0.1,0.4,0.2,0.6,0.2c0.3,0,0.6-0.1,0.9-0.4l8.2-10.7h2.5c0.6,0,1.1-0.5,1.1-1.1
			C44,15.6,41.8,12.7,38.6,11.9z"/>
		<path class="st0" d="M19.3,7.7h5.4c0.6,0,1.1-0.5,1.1-1.1s-0.5-1.1-1.1-1.1h-5.4c-0.6,0-1.1,0.5-1.1,1.1S18.7,7.7,19.3,7.7z"/>
	</g>
</g>
</svg>
