<?xml version="1.0" encoding="utf-8"?>
<!-- Generator: Adobe Illustrator 21.0.0, SVG Export Plug-In . SVG Version: 6.00 Build 0)  -->
<svg version="1.1" id="Calque_1" xmlns="http://www.w3.org/2000/svg" xmlns:xlink="http://www.w3.org/1999/xlink" x="0px" y="0px"
	 viewBox="0 0 44 57" style="enable-background:new 0 0 44 57;" xml:space="preserve">
<style type="text/css">
	.st0{fill:#25438E;}
</style>
<g>
	<g>
		<path class="st0" d="M22.8,47.5c-0.4,0-0.8-0.2-1-0.5c-0.5-0.6-0.4-1.4,0.2-1.8l2-1.7c0.7-0.6,1.6-0.7,2.4-0.4l2.4,0.9l1.3-2.2
			c0.4-0.8,1.3-1.2,2.1-1.2l0,0h2.5l0.4-2.4c0.2-0.9,0.8-1.6,1.6-1.9l2.4-0.8L38.7,33c-0.2-0.9,0.2-1.8,0.9-2.3l1.9-1.6L40.3,27
			c-0.5-0.8-0.5-1.7,0-2.5l1.2-2.1l-1.9-1.6c-0.7-0.6-1-1.5-0.9-2.3l0.4-2.4l-2.4-0.8c-0.8-0.3-1.4-1-1.6-1.9L34.7,11h-2.5l0,0
			c-0.9,0-1.7-0.5-2.1-1.2l-1.3-2.2l-2.4,0.9c-0.8,0.3-1.7,0.1-2.4-0.4l-1.9-1.6l-1.9,1.6c-0.7,0.6-1.6,0.7-2.4,0.4l-2.4-0.9
			l-1.3,2.2C13.7,10.6,12.8,11,12,11l0,0H9.5L9,13.3c-0.2,0.9-0.8,1.6-1.6,1.9L5,16l0.4,2.4c0.2,0.9-0.2,1.8-0.9,2.3l-1.9,1.6
			l1.2,2.1c0.5,0.8,0.5,1.7,0,2.5L2.6,29l1.9,1.6c0.7,0.6,1,1.5,0.9,2.3L5,35.4l2.4,0.8c0.8,0.3,1.4,1,1.6,1.9
			c0.1,0.7-0.3,1.4-1.1,1.5c-0.7,0.1-1.3-0.3-1.5-1L4,37.8c-1.1-0.4-1.8-1.6-1.6-2.8l0.4-2.4L0.9,31c-0.9-0.8-1.2-2.1-0.6-3.2
			l1.3-2.1l-1.3-2.1c-0.6-1.1-0.4-2.4,0.6-3.2l1.9-1.6l-0.4-2.4C2.2,15.2,2.9,14,4,13.6l2.4-0.9l0.4-2.5C7,9,8,8.2,9.2,8.2l0,0h2.6
			L13.1,6c0.6-1,1.9-1.5,3-1.1l2.4,0.9l2-1.6c0.9-0.8,2.2-0.8,3.2,0l2,1.6L28,5c1.2-0.4,2.4,0,3,1l1.3,2.2h2.6l0,0
			c1.2,0,2.2,0.9,2.4,2l0.4,2.5l2.4,0.9c1.1,0.4,1.8,1.6,1.6,2.8l-0.4,2.4l1.9,1.6c0.9,0.8,1.2,2.1,0.6,3.2l-1.3,2.1l1.3,2.1
			c0.6,1.1,0.4,2.4-0.6,3.2l-1.9,1.6l0.4,2.4c0.2,1.2-0.5,2.4-1.6,2.8l-2.4,0.9l-0.4,2.5c-0.2,1.2-1.2,2-2.4,2l0,0h-2.6L31,45.4
			c-0.6,1-1.9,1.5-3,1.1l-2.4-0.9l-2,1.6C23.4,47.4,23.1,47.5,22.8,47.5z M32.2,43.2L32.2,43.2L32.2,43.2L32.2,43.2z"/>
	</g>
	<g>
		<path class="st0" d="M22.1,41.7c-8.8,0-16-7.2-16-16s7.2-16,16-16s16,7.2,16,16C38,30,36.4,34,33.4,37c-0.5,0.5-1.3,0.5-1.9,0
			c-0.5-0.5-0.5-1.3,0-1.9c2.5-2.5,3.9-5.9,3.9-9.4c0-7.4-6-13.4-13.4-13.4s-13.4,6-13.4,13.4s6,13.4,13.4,13.4
			c0.7,0,1.3,0.6,1.3,1.3S22.8,41.7,22.1,41.7z"/>
	</g>
	<g>
		<path class="st0" d="M19.2,32.8c-0.3,0-0.7-0.1-0.9-0.4l-5.8-5.8c-0.5-0.5-0.5-1.3,0-1.9c0.5-0.5,1.3-0.5,1.9,0l4.9,4.9L29.8,19
			c0.5-0.5,1.3-0.5,1.9,0c0.5,0.5,0.5,1.3,0,1.9L20.1,32.4C19.9,32.7,19.5,32.8,19.2,32.8z"/>
	</g>
	<g>
		<path class="st0" d="M33.5,57c-0.1,0-0.3,0-0.4-0.1l-11-3.8l-11,3.8c-0.4,0.1-0.8,0.1-1.2-0.2c-0.3-0.2-0.6-0.6-0.6-1.1V41.9
			c0-0.7,0.6-1.3,1.3-1.3s1.3,0.6,1.3,1.3v12l9.7-3.4c0.3-0.1,0.6-0.1,0.9,0l9.7,3.4v-5.1c0-0.7,0.6-1.3,1.3-1.3s1.3,0.6,1.3,1.3
			v6.9c0,0.4-0.2,0.8-0.6,1.1C34.1,56.9,33.8,57,33.5,57z"/>
	</g>
</g>
</svg>
