<?xml version="1.0" encoding="utf-8"?>
<!-- Generator: Adobe Illustrator 21.0.0, SVG Export Plug-In . SVG Version: 6.00 Build 0)  -->
<svg version="1.1" id="Calque_1" xmlns="http://www.w3.org/2000/svg" xmlns:xlink="http://www.w3.org/1999/xlink" x="0px" y="0px"
	 viewBox="0 0 44 44" style="enable-background:new 0 0 44 44;" xml:space="preserve">
<style type="text/css">
	.st0{fill:#25438E;}
</style>
<g>
	<g>
		<path class="st0" d="M22.2,44c-12.1,0-22-9.9-22-22S10,0,22.2,0c12.1,0,22,9.9,22,22c0,6.1-2.5,11.9-6.9,16
			c-0.4,0.4-1.1,0.4-1.5,0s-0.4-1.1,0-1.5c4-3.8,6.3-8.9,6.3-14.5c0-10.9-8.9-19.9-19.9-19.9S2.3,11.1,2.3,22s8.9,19.9,19.9,19.9
			c0.6,0,1.1,0.5,1.1,1.1C23.2,43.5,22.8,44,22.2,44z"/>
	</g>
	<g>
		<path class="st0" d="M18.9,30.3c-0.3,0-0.6-0.1-0.8-0.3l-6.8-6.8c-0.4-0.4-0.4-1.1,0-1.5s1.1-0.4,1.5,0l6,6l12.8-12.8
			c0.4-0.4,1.1-0.4,1.5,0s0.4,1.1,0,1.5L19.6,30C19.4,30.2,19.2,30.3,18.9,30.3z"/>
	</g>
</g>
</svg>
