<?xml version="1.0" encoding="utf-8"?>
<!-- Generator: Adobe Illustrator 21.0.2, SVG Export Plug-In . SVG Version: 6.00 Build 0)  -->
<svg version="1.1" id="Calque_1" xmlns="http://www.w3.org/2000/svg" xmlns:xlink="http://www.w3.org/1999/xlink" x="0px" y="0px"
	 viewBox="0 0 44 44" style="enable-background:new 0 0 44 44;" xml:space="preserve">
<style type="text/css">
	.st0{fill:#1D1D1B;}
</style>
<path class="st0" d="M36.2,0H7.8C3.5,0,0.1,3.4,0.1,7.7v28.5c0,4.2,3.4,7.7,7.7,7.7h8c0.6,0,1.1-0.5,1.1-1.1s-0.5-1.1-1.1-1.1h-8
	c-3.1,0-5.5-2.5-5.5-5.5V7.7c0-3.1,2.5-5.5,5.5-5.5h28.5c3.1,0,5.5,2.5,5.5,5.5v28.5c0,3.1-2.5,5.5-5.5,5.5H31V27.8h4.3
	c0.5,0,1-0.4,1.1-0.9l0.9-6.3c0-0.3,0-0.6-0.3-0.9c-0.2-0.2-0.5-0.4-0.8-0.4H31v-3.5c0-0.8,0.6-1.4,1.4-1.4h4.1
	c0.6,0,1.1-0.5,1.1-1.1V7.7c0-0.6-0.5-1.1-1.1-1.1h-6.3c-4.2,0-7.7,3.4-7.7,7.7v4.9h-4.6c-0.6,0-1.1,0.5-1.1,1.1v6.3
	c0,0.6,0.5,1.1,1.1,1.1h4.2V43c0,0.6,0.5,1.1,1.1,1.1s1.1-0.5,1.1-1.1V26.6c0-0.6-0.5-1.1-1.1-1.1H19v-4.2h4.6
	c0.6,0,1.1-0.5,1.1-1.1v-6c0-3,2.5-5.5,5.5-5.5h5.3v3.5h-3c-2,0-3.6,1.6-3.6,3.6v4.5c0,0.6,0.5,1.1,1.1,1.1h5l-0.6,4.2H30
	c-0.6,0-1.1,0.5-1.1,1.1v16.1c0,0.6,0.5,1.1,1.1,1.1h6.3c4.2,0,7.7-3.4,7.7-7.7V7.7C43.9,3.4,40.5,0,36.2,0z"/>
</svg>
