<?xml version="1.0" encoding="utf-8"?>
<!-- Generator: Adobe Illustrator 21.0.2, SVG Export Plug-In . SVG Version: 6.00 Build 0)  -->
<svg version="1.1" id="Calque_1" xmlns="http://www.w3.org/2000/svg" xmlns:xlink="http://www.w3.org/1999/xlink" x="0px" y="0px"
	 viewBox="0 0 44 44" style="enable-background:new 0 0 44 44;" xml:space="preserve">
<style type="text/css">
	.st0{fill:#1D1D1B;}
</style>
<path class="st0" d="M22,3.3c6.2,0,11.3,5.1,11.3,11.3S28.2,26,22,26s-11.3-5.1-11.3-11.3S15.8,3.3,22,3.3 M22,1.2
	c-7.4,0-13.5,6-13.5,13.5c0,7.4,6,13.5,13.5,13.5s13.5-6,13.5-13.5S29.4,1.2,22,1.2L22,1.2z"/>
<g>
	<path class="st0" d="M42.9,42.8H1.1c-0.6,0-1.1-0.5-1.1-1.1c0-7.2,5.2-13.3,12.3-14.5c0.6-0.1,1.1,0.3,1.2,0.9
		c0.1,0.6-0.3,1.1-0.9,1.2c-5.7,1-9.9,5.7-10.4,11.4h39.6c-0.4-5.1-4-9.5-9-11c-0.6-0.2-0.9-0.8-0.7-1.3c0.2-0.6,0.8-0.9,1.3-0.7
		c6.3,1.8,10.6,7.6,10.6,14C44,42.3,43.5,42.8,42.9,42.8z"/>
</g>
</svg>
