<?xml version="1.0" encoding="utf-8"?>
<!-- Generator: Adobe Illustrator 21.0.2, SVG Export Plug-In . SVG Version: 6.00 Build 0)  -->
<svg version="1.1" id="Calque_1" xmlns="http://www.w3.org/2000/svg" xmlns:xlink="http://www.w3.org/1999/xlink" x="0px" y="0px"
	 viewBox="0 0 44 44" style="enable-background:new 0 0 44 44;" xml:space="preserve">
<style type="text/css">
	.st0{fill:#1D1D1B;}
</style>
<path class="st0" d="M43.8,9.6c0.2-0.3,0.3-0.7,0.1-1c0,0,0,0,0-0.1c0,0,0,0,0-0.1l0,0c0-0.1-0.1-0.1-0.1-0.1l0,0
	c-0.1-0.1-0.2-0.2-0.4-0.3c-0.4-0.2-0.8-0.1-1.1,0.2c-0.2,0.1-0.4,0.2-0.6,0.3c0.6-0.9,1.1-1.9,1.4-3c0.2-0.4,0.1-0.8-0.2-1.1l0,0
	c-0.1-0.2-0.3-0.3-0.5-0.3c-0.4-0.1-0.8,0-1,0.3C40,5.3,38.5,6,36.8,6.1c-1.8-1.5-4-2.3-6.3-2.3c-5.4,0-9.8,4.4-9.8,9.8
	c0,0.3,0,0.5,0,0.8c-6-1.5-11.5-4.5-16.1-8.7l0,0L4.5,5.6c0,0-0.1,0-0.1-0.1l0,0H4.3H4.2H4.1H4H3.9H3.8H3.7H3.6H3.5H3.4
	c0,0-0.1,0-0.1,0.1H3.2L3.1,5.7l0,0l0,0L3,5.8c0,0,0,0-0.1,0.1l0,0c-0.8,1.4-1.2,3-1.2,4.7c0,1.9,0.5,3.7,1.5,5.2H3.1
	C2.7,15.6,2.2,16,2,16.5v0.1c0,0.1-0.1,0.3-0.1,0.4c0,2.9,1.3,5.6,3.4,7.5l0,0c0,0,0,0-0.1,0.1l-0.1,0.1c0,0,0,0-0.1,0.1
	c0,0,0,0.1-0.1,0.1V25v0.1v0.1v0.1v0.1v0.1l0,0v0.1v0.1l0,0c1.3,4.1,5,6.9,9.3,6.9c0.6,0,1.1-0.5,1.1-1.1c0-0.6-0.5-1.1-1.1-1.1
	c-2.9,0-5.5-1.6-6.8-4.1c0.3,0,0.6-0.1,0.9-0.1c0.1,0,0.1,0,0.1,0l0,0C8.8,26,9,25.9,9.1,25.7l0,0c0.1-0.1,0.1-0.2,0.2-0.3l0,0l0,0
	c0-0.1,0-0.1,0.1-0.2l0,0c0-0.1,0-0.1,0-0.2c0,0,0,0,0-0.1v-0.1l0,0c0,0,0,0,0-0.1v-0.1c0,0,0,0,0-0.1c0,0,0-0.1-0.1-0.1
	c0,0,0,0-0.1-0.1c0,0,0-0.1-0.1-0.1L9,24.1c0,0,0,0-0.1-0.1c0,0-0.1,0-0.1-0.1c0,0,0,0-0.1,0l0,0c-2.5-1-4.2-3.2-4.6-5.8
	c0.7,0.2,1.5,0.4,2.2,0.5c0.1,0,0.1,0,0.2,0l0,0l0,0c0.1,0,0.1,0,0.2,0c0,0,0,0,0.1,0c0,0,0.1,0,0.1-0.1c0,0,0,0,0.1,0
	s0.1-0.1,0.2-0.1l0,0l0.1-0.1l0,0l0,0c0,0,0-0.1,0.1-0.1v-0.1V18v-0.1l0,0l0,0v-0.1v-0.1v-0.1v-0.1v-0.1v-0.1c0,0,0-0.1-0.1-0.1
	c0,0,0-0.1-0.1-0.1c0,0,0-0.1-0.1-0.1L7,16.9c0,0,0,0-0.1,0c-2-1.4-3.2-3.7-3.2-6.2C4,9.8,4.2,9,4.4,8.3c5,4.3,11,7.2,17.5,8.5
	c0.1,0,0.1,0,0.2,0l0,0c0,0,0,0,0.1,0s0.1,0,0.2,0c0,0,0,0,0.1,0c0,0,0,0,0.1,0c0,0,0,0,0.1,0c0,0,0.1,0,0.1-0.1l0,0
	c0.2-0.1,0.4-0.3,0.5-0.5l0,0c0-0.1,0-0.1,0-0.2l0,0l0,0c0-0.1,0-0.1,0-0.2l0,0c0-0.1,0-0.1,0-0.2c0,0,0,0,0-0.1l0,0
	c-0.2-0.6-0.2-1.3-0.2-1.9c0-4.2,3.4-7.6,7.6-7.6c1.9,0,3.8,0.7,5.2,2L36,8.1l0,0c0,0,0.1,0.1,0.2,0.1l0,0c0.1,0,0.1,0,0.2,0.1l0,0
	c0.1,0,0.1,0,0.2,0l0,0l0,0h0.1c1,0,1.9-0.2,2.9-0.5c-0.4,0.5-1,1-1.5,1.4c-0.3,0.2-0.5,0.5-0.5,0.9c0,0.6,0.4,1.1,1,1.1
	c0.1,0,0.2,0,0.3,0c0.5,0,1,0,1.5-0.1c-0.4,0.4-0.9,0.8-1.5,1.1l0,0c0,0-0.1,0-0.1,0.1c0,0,0,0-0.1,0.1l-0.1,0.1c0,0,0,0-0.1,0.1
	c0,0,0,0.1-0.1,0.1v0.1v0.1V13v0.1v0.1c0,0,0,0,0,0.1c0,0.5,0.1,1.1,0.1,1.7c0,12.8-10.4,23.3-23.3,23.3c-4.8,0-9.4-1.5-13.4-4.2
	c-0.5-0.3-1.2-0.2-1.5,0.3s-0.2,1.2,0.3,1.5c4.3,3,9.3,4.6,14.6,4.6c14,0,25.4-11.4,25.4-25.4c0-0.4,0-0.8,0-1.2
	C41.9,12.6,43.1,11.2,43.8,9.6z"/>
</svg>
