<?xml version="1.0" encoding="utf-8"?>
<!-- Generator: Adobe Illustrator 21.0.2, SVG Export Plug-In . SVG Version: 6.00 Build 0)  -->
<svg version="1.1" id="Calque_1" xmlns="http://www.w3.org/2000/svg" xmlns:xlink="http://www.w3.org/1999/xlink" x="0px" y="0px"
	 viewBox="0 0 44 44" style="enable-background:new 0 0 44 44;" xml:space="preserve">
<style type="text/css">
	.st0{fill:#F2C94C;}
</style>
<g>
	<g>
	</g>
</g>
<path class="st0" d="M32.8,42.3c-0.7,0-1.4-0.2-2.1-0.5L22,37.2l-8.7,4.6c-1.4,0.7-3.2,0.7-4.6-0.2C7.3,40.7,6.6,39,7,37.4l1.6-9.9
	l-7.1-6.9c-1.2-1.2-1.6-2.8-1.2-4.4c0.5-1.6,1.8-2.8,3.5-3l9.9-1.4l4.4-9c0.7-1.4,2.3-2.3,3.9-2.3s3,0.9,3.9,2.3l4.4,9l9.9,1.4
	c1.6,0.2,3,1.4,3.5,3c0.5,1.6,0,3.2-1.2,4.4l-7.1,6.9l1.6,9.9c0.2,1.6-0.5,3.2-1.6,4.1C34.7,41.8,33.7,42.3,32.8,42.3z"/>
<path class="st0" d="M5.9,17.9l6.4,6.2c0.9,0.9,1.4,2.3,1.2,3.7l-1.6,8.7l8.1-4.1c1.2-0.7,2.8-0.7,3.9,0l8.1,4.1l-1.6-8.7
	c-0.2-1.4,0.2-2.8,1.2-3.7l6.4-6.2l-9-1.4c-1.4-0.2-2.5-1.2-3.2-2.3L22,6.1l-3.9,8.1c-0.7,1.2-1.8,2.1-3.2,2.3L5.9,17.9z"/>
</svg>
