<?xml version="1.0" encoding="utf-8"?>
<!-- Generator: Adobe Illustrator 21.0.2, SVG Export Plug-In . SVG Version: 6.00 Build 0)  -->
<svg version="1.1" id="Calque_1" xmlns="http://www.w3.org/2000/svg" xmlns:xlink="http://www.w3.org/1999/xlink" x="0px" y="0px"
	 viewBox="0 0 44 44" style="enable-background:new 0 0 44 44;" xml:space="preserve">
<style type="text/css">
	.st0{fill:#1D1D1B;}
</style>
<g>
	<path class="st0" d="M7.3,44c-4,0-7.3-3.3-7.3-7.3s3.3-7.3,7.3-7.3c0.7,0,1.3,0.6,1.3,1.3S8.1,32,7.3,32c-2.6,0-4.7,2.1-4.7,4.7
		s2.1,4.7,4.7,4.7s4.7-2.1,4.7-4.7c0-0.7-0.2-1.4-0.5-2.1c-0.2-0.3-0.2-0.7-0.1-1c0.1-0.3,0.4-0.6,0.7-0.8l18.6-9.3
		c0.7-0.3,1.5-0.1,1.8,0.6c0.8,1.6,2.4,2.6,4.2,2.6c2.6,0,4.7-2.1,4.7-4.7c0-2.6-2.1-4.7-4.7-4.7c-1.8,0-3.4,1-4.2,2.6
		c-0.3,0.7-1.1,0.9-1.8,0.6l-18.6-9.3c-0.3-0.2-0.6-0.4-0.7-0.8s-0.1-0.7,0.1-1C11.9,8.8,12,8.1,12,7.3c0-2.6-2.1-4.7-4.7-4.7
		S2.7,4.8,2.7,7.3S4.8,12,7.3,12c0.7,0,1.3,0.6,1.3,1.3s-0.6,1.3-1.3,1.3c-4,0-7.3-3.3-7.3-7.3C0,3.3,3.3,0,7.3,0s7.3,3.3,7.3,7.3
		c0,0.7-0.1,1.4-0.3,2l16.4,8.2c1.4-1.8,3.5-2.9,5.9-2.9c4,0,7.3,3.3,7.3,7.3c0,4-3.3,7.3-7.3,7.3c-2.3,0-4.5-1.1-5.9-2.9l-16.4,8.2
		c0.2,0.7,0.3,1.3,0.3,2C14.7,40.7,11.4,44,7.3,44z"/>
</g>
</svg>
