<?xml version="1.0" encoding="utf-8"?>
<!-- Generator: Adobe Illustrator 21.0.2, SVG Export Plug-In . SVG Version: 6.00 Build 0)  -->
<svg version="1.1" id="Calque_1" xmlns="http://www.w3.org/2000/svg" xmlns:xlink="http://www.w3.org/1999/xlink" x="0px" y="0px"
	 viewBox="0 0 270 236" style="enable-background:new 0 0 270 236;" xml:space="preserve">
<style type="text/css">
	.st0{fill:#FFFFFF;}
</style>
<g>
	<g>
		<path class="st0" d="M30.4,190.6L30.4,190.6c-2.7-2-5.7-3.1-9.2-3.1c-4.2,0-7.8,1.5-10.8,4.5c-3,3-4.5,6.6-4.5,10.8
			c0,4.2,1.5,7.8,4.5,10.8c3,3,6.6,4.5,10.8,4.5c3.5,0,6.6-1,9.2-3.1l0,0c0,0,0,0,0.1-0.1c0.6-0.6,1.3-0.9,2.1-0.9
			c0.8,0,1.5,0.3,2.1,0.9s0.9,1.3,0.9,2.1c0,0.8-0.3,1.5-0.9,2.1c0,0,0,0-0.1,0.1l0,0c-3.9,3.2-8.4,4.8-13.6,4.8
			c-5.9,0-10.9-2.1-15.1-6.3s-6.3-9.2-6.3-15.1s2.1-10.9,6.3-15.1s9.2-6.3,15.1-6.3c5.2,0,9.7,1.6,13.6,4.8l0,0c0,0,0,0,0.1,0.1
			c0.6,0.6,0.9,1.3,0.9,2.1c0,0.8-0.3,1.5-0.9,2.1s-1.3,0.9-2.1,0.9C31.8,191.5,31.1,191.2,30.4,190.6
			C30.4,190.6,30.4,190.6,30.4,190.6z"/>
		<path class="st0" d="M64.9,198.8c2.9,2.9,4.3,6.4,4.3,10.5c0,4.1-1.4,7.6-4.3,10.5c-2.9,2.9-6.4,4.3-10.5,4.3s-7.6-1.4-10.5-4.3
			c-2.9-2.9-4.3-6.4-4.3-10.5c0-4.1,1.4-7.6,4.3-10.5c2.9-2.9,6.4-4.3,10.5-4.3S62,195.9,64.9,198.8z M54.4,200.4
			c-2.4,0-4.5,0.9-6.3,2.6c-1.7,1.7-2.6,3.8-2.6,6.2s0.9,4.5,2.6,6.3c1.7,1.7,3.8,2.6,6.3,2.6c2.4,0,4.5-0.9,6.2-2.6
			s2.6-3.8,2.6-6.3s-0.9-4.5-2.6-6.2C58.9,201.3,56.9,200.4,54.4,200.4z"/>
		<path class="st0" d="M102.2,224.2c-0.8,0-1.5-0.3-2.1-0.9c-0.6-0.6-0.9-1.4-0.9-2.6v-11.5c0-0.2,0-0.4,0-0.5
			c-0.1-2.2-1-4.1-2.6-5.6c-1.7-1.7-3.8-2.6-6.3-2.6h-0.1c-2.4,0-4.5,0.9-6.3,2.6c-1.6,1.6-2.4,3.4-2.6,5.6c0,0.2,0,0.4,0,0.5v11.5
			c0,1.1-0.3,2-0.9,2.6c-0.6,0.6-1.3,0.9-2.1,0.9s-1.5-0.3-2.1-0.9c-0.6-0.6-0.9-1.5-0.9-2.6v-11.5c0-4.1,1.5-7.5,4.3-10.4
			c2.7-2.7,6.1-4.2,10.3-4.4h0.5c4.2,0.2,7.6,1.7,10.3,4.4c0.5,0.5,0.9,1,1.3,1.5c0.4-0.5,0.8-1,1.3-1.5c2.7-2.7,6.1-4.2,10.3-4.4
			h0.5c4.2,0.2,7.6,1.7,10.3,4.4c2.9,2.9,4.3,6.3,4.3,10.4v11.5c0,1.2-0.3,2-0.9,2.6c-0.6,0.6-1.3,0.9-2.1,0.9s-1.5-0.3-2.1-0.9
			c-0.6-0.6-0.9-1.4-0.9-2.6v-11.5c0-0.2,0-0.4,0-0.5c-0.1-2.2-1-4.1-2.6-5.6c-1.7-1.7-3.8-2.6-6.3-2.6h-0.1c-2.4,0-4.5,0.9-6.3,2.6
			c-1.6,1.6-2.4,3.4-2.6,5.6c0,0.2,0,0.4,0,0.5v11.5c0,1.1-0.3,2-0.9,2.6C103.8,223.9,103.1,224.2,102.2,224.2L102.2,224.2z"/>
		<path class="st0" d="M153.5,201.2c-1.1-0.5-2.3-0.7-3.6-0.7c-2.4,0-4.5,0.9-6.3,2.6c-1.7,1.7-2.6,3.8-2.6,6.2s0.9,4.5,2.6,6.3
			s3.8,2.6,6.3,2.6c2.4,0,4.5-0.9,6.2-2.6c0,0,0,0,0.1-0.1c0.6-0.6,1.3-0.9,2.1-0.9c0.8,0,1.5,0.3,2.1,0.9c0.6,0.6,0.9,1.3,0.9,2.1
			c0,0.8-0.3,1.5-0.9,2.1c0,0,0,0-0.1,0.1c-2.9,2.9-6.4,4.3-10.5,4.3s-7.6-1.4-10.5-4.3c-2.9-2.9-4.3-6.4-4.3-10.5
			c0-4.1,1.4-7.6,4.3-10.5c2.9-2.9,6.4-4.3,10.5-4.3s7.6,1.4,10.5,4.3l0,0c0,0,0,0,0,0c0.6,0.6,0.9,1.3,0.9,2.1
			c0,0.8-0.3,1.5-0.9,2.1l-8.5,8.5c-0.6,0.6-1.3,0.9-2.1,0.9c-0.9,0-1.6-0.3-2.2-0.9c-0.6-0.6-0.9-1.3-0.9-2.2
			c0-0.8,0.3-1.5,0.9-2.1L153.5,201.2z"/>
		<path class="st0" d="M182.9,194.4c4.2,0.2,7.6,1.7,10.3,4.4c2.9,2.9,4.3,6.3,4.3,10.4v11.5c0,1.2-0.3,2-0.9,2.6
			c-0.6,0.6-1.3,0.9-2.1,0.9c-0.8,0-1.5-0.3-2.1-0.9c-0.6-0.6-0.9-1.4-0.9-2.6v-11.5c0-0.2,0-0.4,0-0.5c-0.1-2.2-1-4.1-2.6-5.6
			c-1.7-1.7-3.8-2.6-6.3-2.6h-0.1c-2.4,0-4.5,0.9-6.3,2.6c-1.6,1.6-2.4,3.4-2.6,5.6c0,0.2,0,0.4,0,0.5v11.5c0,1.1-0.3,2-0.9,2.6
			c-0.6,0.6-1.3,0.9-2.1,0.9c-0.8,0-1.5-0.3-2.1-0.9c-0.6-0.6-0.9-1.5-0.9-2.6v-11.5c0-4.1,1.5-7.5,4.3-10.4
			c2.7-2.7,6.1-4.2,10.3-4.4H182.9z"/>
		<path class="st0" d="M206.6,191.4c-0.8,0-1.5-0.3-2.1-0.9c-0.6-0.6-0.9-1.3-0.9-2.1s0.3-1.5,0.9-2.1c0.6-0.6,1.3-0.9,2.1-0.9
			c0.8,0,1.5,0.3,2.1,0.9s0.9,1.3,0.9,2.1s-0.3,1.5-0.9,2.1C208.1,191.1,207.4,191.4,206.6,191.4z M206.6,224.2
			c-0.8,0-1.5-0.3-2.1-0.9c-0.6-0.6-0.9-1.3-0.9-2.1v-23.8c0-0.8,0.3-1.5,0.9-2.1c0.6-0.6,1.3-0.9,2.1-0.9c0.8,0,1.5,0.3,2.1,0.9
			c0.6,0.6,0.9,1.3,0.9,2.1v23.8c0,0.8-0.3,1.5-0.9,2.1C208.1,223.9,207.4,224.2,206.6,224.2z"/>
		<path class="st0" d="M222.5,194.3v-5.7c0-0.8,0.3-1.5,0.9-2.1c0.6-0.6,1.3-0.9,2.1-0.9c0.8,0,1.5,0.3,2.1,0.9
			c0.6,0.6,0.9,1.3,0.9,2.1v5.7h3.3c0.8,0,1.5,0.3,2.1,0.9c0.6,0.6,0.9,1.3,0.9,2.1c0,0.8-0.3,1.5-0.9,2.1c-0.6,0.6-1.3,0.9-2.1,0.9
			h-3.3v20.7c0,0.8-0.3,1.5-0.9,2.1c-0.6,0.6-1.3,0.9-2.1,0.9c-0.8,0-1.5-0.3-2.1-0.9c-0.6-0.6-0.9-1.3-0.9-2.1v-20.7h-3.4
			c-0.8,0-1.5-0.3-2.1-0.9c-0.6-0.6-0.9-1.3-0.9-2.1c0-0.8,0.3-1.5,0.9-2.1c0.6-0.6,1.3-0.9,2.1-0.9H222.5z"/>
		<path class="st0" d="M240.8,198.8c-0.2-0.4-0.4-0.9-0.4-1.4c0-0.8,0.3-1.5,0.9-2.1c0.6-0.6,1.3-0.9,2.1-0.9c0.8,0,1.5,0.3,2.1,0.9
			c0.3,0.3,0.5,0.7,0.7,1.1l9.1,18.2l9.1-18.2c0.1-0.4,0.4-0.8,0.7-1.1c0.6-0.6,1.3-0.9,2.1-0.9c0.8,0,1.5,0.3,2.1,0.9
			c0.6,0.6,0.9,1.3,0.9,2.1c0,0.5-0.1,0.9-0.3,1.3l-17.6,35.4c-0.2,0.4-0.5,0.8-0.8,1.1c-0.6,0.6-1.3,0.9-2.1,0.9
			c-0.8,0-1.5-0.3-2.1-0.9c-0.6-0.6-0.9-1.3-0.9-2.1c0-0.6,0.1-1.2,0.4-1.7l5.2-10.2L240.8,198.8z"/>
	</g>
	<g>
		<path class="st0" d="M205.3,105.8c0.2-1.2,0.4-2.4,0.6-3.6c0.4-2.7,0.7-5.3,1-8c0.4-0.6,0.8-1.1,1.2-1.7c0.7-1,1.4-1.9,2.1-2.9
			c1-1.7,1.7-3.5,2.2-5.5c0.4-1.5,0.5-3,0.5-4.6c0-1.6-0.2-3.1-0.5-4.6c-0.5-2-1.2-3.8-2.2-5.5c-0.7-1-1.4-2-2.2-3
			c-0.4-0.5-0.8-1.1-1.2-1.6c-2.4-3.2-5-6.3-7.7-9.3c-0.5-0.6-1.1-1.2-1.6-1.8c-2-2.2-4.1-4.3-6.2-6.3c-1.6-1.5-3.3-3.1-5-4.5
			c-1-0.9-2-1.7-3-2.5c0,0,0,0,0,0c-0.6-0.5-1.2-1-1.8-1.5c-10.4-8.2-22-15-34.5-20c-0.7-0.3-1.3-0.5-2-0.8c1-0.2,1.9-0.4,2.9-0.6
			c2.7-0.6,5.3-1,8-1.4c8.4,3.9,16.3,8.5,23.7,13.8l0,0c1.4,1,2.7,2,4,3c1.6,1.2,3.1,2.4,4.6,3.7c0.2,0.2,0.5,0.4,0.7,0.6
			c2.7,2.3,5.3,4.6,7.9,7.1c2.9,2.8,5.7,5.8,8.4,8.9c2.6,3,5.1,6.1,7.5,9.3c0.9,1.2,1.8,2.4,2.7,3.7c0,0,0,0,0,0.1
			c0.3,0.4,0.5,0.9,0.7,1.4c1.3,2.4,2.1,5.1,2.6,8c0.2,1.3,0.3,2.6,0.3,3.9c0,1.3-0.1,2.7-0.3,4c-0.4,2.8-1.3,5.5-2.6,8
			c-0.2,0.5-0.5,0.9-0.7,1.4c0,0,0,0,0,0.1c-0.9,1.2-1.7,2.4-2.6,3.7C210.4,99.7,207.9,102.8,205.3,105.8z"/>
		<path class="st0" d="M105.4,155.9L105.4,155.9c-0.3,0-0.5,0-0.8,0c-2.9-0.1-5.6-0.7-8.2-1.7c-2.5-1-4.9-2.4-7-4.1
			c-2.2-1.8-4.1-3.8-5.6-6.2c-0.3-0.5-0.6-1-0.9-1.5c0,0,0,0,0,0c-0.6-1.2-1.1-2.4-1.6-3.6c0,0,0,0,0,0c-1.8-4-3.4-8.1-4.8-12.3
			c1.1,0.9,2.1,1.8,3.2,2.6c2,1.6,4,3.1,6.1,4.6c0.4,1,0.8,1.9,1.2,2.9c0.4,1,0.8,1.9,1.3,2.8c0,0.1,0.1,0.1,0.1,0.2
			c1,1.7,2.2,3.3,3.7,4.7c0,0,0,0,0,0c2.2,2.1,4.9,3.7,8,4.6v0c1.7,0.5,3.5,0.8,5.3,0.8c0,0,0,0,0,0c0,0,0,0,0,0
			c1.6-0.1,3.1-0.3,4.7-0.5h0l2-0.2c4-0.5,8-1.2,11.9-2c0.6-0.1,1.2-0.3,1.7-0.4h0c3.1-0.7,6.1-1.5,9.1-2.4c2.1-0.6,4.1-1.3,6.1-2
			c1.3-0.5,2.6-0.9,3.9-1.4c0.7-0.3,1.3-0.5,2-0.8c12.5-5,24.1-11.8,34.5-20c0.6-0.5,1.2-1,1.8-1.5c-0.3,1.1-0.6,2.1-1,3.2
			c-0.8,2.5-1.7,4.9-2.6,7.4c0,0,0,0,0,0c-7.4,5.3-15.4,9.9-23.7,13.8c-1.6,0.7-3.2,1.4-4.8,2.1c-1.7,0.7-3.5,1.4-5.2,2.1
			c-0.4,0.1-0.7,0.3-1.1,0.4c-3.2,1.2-6.5,2.2-9.8,3.2c-3.9,1.1-7.9,2.1-11.9,2.9c-3.8,0.8-7.7,1.4-11.7,1.8c0,0-0.1,0-0.1,0
			C109.4,155.6,107.4,155.8,105.4,155.9z"/>
		<path class="st0" d="M114.1,142.8c-8.4-3.9-16.3-8.5-23.8-13.8c-1.4-1-2.7-2-4-3c-1.5-1.2-3.1-2.4-4.6-3.6
			c-0.2-0.2-0.5-0.4-0.7-0.6c-2.7-2.3-5.3-4.6-7.9-7.1c-2.9-2.8-5.7-5.8-8.4-8.9c-2.6-3-5.1-6.1-7.5-9.3c0,0,0,0,0,0
			c-0.9-1.2-1.8-2.4-2.6-3.7c0,0,0,0,0,0c-0.3-0.4-0.5-0.9-0.7-1.4c-1.3-2.4-2.1-5.1-2.6-7.9c-0.2-1.3-0.3-2.6-0.3-4
			c0-1.3,0.1-2.7,0.3-4v0c0.4-2.8,1.3-5.5,2.6-7.9c0.2-0.5,0.5-0.9,0.7-1.4c0,0,0,0,0,0c0.9-1.3,1.8-2.5,2.7-3.7c0,0,0-0.1,0.1-0.1
			c2.3-3.2,4.8-6.3,7.4-9.2c-0.2,1.2-0.4,2.4-0.6,3.6c-0.4,2.7-0.7,5.4-1,8.1c-0.4,0.5-0.8,1-1.1,1.5c0,0.1-0.1,0.1-0.1,0.1
			c-0.7,1-1.4,1.9-2.1,2.9c0,0,0,0,0,0.1c-1,1.7-1.7,3.5-2.2,5.5c-0.3,1.5-0.5,3-0.5,4.6c0,1.6,0.2,3.1,0.5,4.6v0
			c0.5,1.9,1.2,3.8,2.2,5.5c0,0,0,0,0,0c0.7,1,1.4,1.9,2.1,2.9c0,0,0.1,0.1,0.1,0.1c0.4,0.5,0.8,1.1,1.2,1.6c2.4,3.2,5,6.3,7.7,9.3
			c0.5,0.6,1.1,1.2,1.6,1.8v0c2,2.2,4.1,4.3,6.2,6.3c1.6,1.5,3.3,3.1,5,4.5c1,0.9,2,1.7,3,2.5c0.6,0.5,1.2,1,1.8,1.5
			c10.4,8.2,22,15,34.5,20c0.7,0.3,1.3,0.5,2,0.8c-1,0.2-1.9,0.4-2.9,0.6h0C119.5,141.9,116.8,142.4,114.1,142.8z"/>
		<path class="st0" d="M164.6,155.9L164.6,155.9c-2-0.2-4-0.3-6-0.6c0,0-0.1,0-0.1,0c-3.9-0.5-7.8-1.1-11.7-1.8
			c1.2-0.4,2.4-0.9,3.6-1.4c2.4-1,4.9-2,7.2-3.1c0.7,0.1,1.4,0.2,2,0.3c0,0,0,0,0,0c1.4,0.3,2.8,0.5,4.3,0.5c0.1,0,0.2,0,0.4,0
			c0,0,0,0,0,0c0,0,0,0,0,0c1.8,0,3.6-0.3,5.3-0.8v0c3-0.9,5.8-2.5,8-4.6c0,0,0,0,0,0c1.4-1.4,2.7-2.9,3.6-4.6c0,0,0.1-0.1,0.1-0.1
			c0.5-1,0.9-1.9,1.3-2.9c0.4-0.9,0.8-1.9,1.2-2.9c1.5-3.7,2.9-7.5,4.1-11.3c0.2-0.5,0.3-0.9,0.4-1.4c0,0,0,0,0,0
			c1-3.1,1.8-6.3,2.5-9.5c0.5-1.9,0.9-3.9,1.2-5.9c0.3-1.5,0.5-3,0.8-4.5c0.1-0.6,0.2-1.1,0.2-1.7c0.9-6.5,1.4-13.2,1.4-19.9
			c0-6.8-0.5-13.4-1.4-19.9c-0.1-0.6-0.2-1.1-0.2-1.6c0.5,0.6,1.1,1.1,1.6,1.7c1.9,2.2,3.8,4.4,5.6,6.7c0,0,0,0,0,0
			c0.4,4.3,0.6,8.7,0.6,13.2c0,4.4-0.2,8.8-0.6,13.2c0,0,0,0,0,0c-0.2,1.8-0.4,3.7-0.6,5.5c-0.2,1.8-0.5,3.5-0.8,5.2
			c-0.1,0.5-0.2,1-0.3,1.5h0c-0.6,3.3-1.2,6.6-2,9.8c-1,4-2.1,7.9-3.4,11.8h0c-1.4,4.2-3,8.3-4.7,12.3c0,0,0,0.1,0,0.1
			c-0.5,1.2-1.1,2.4-1.6,3.6c0,0,0,0,0,0c-0.3,0.5-0.6,1-0.9,1.5c-1.5,2.4-3.4,4.4-5.6,6.2c-2.1,1.7-4.4,3.1-7,4.1
			c-2.6,1-5.3,1.6-8.2,1.7C165.2,155.9,164.9,155.9,164.6,155.9z"/>
		<path class="st0" d="M76.8,101c-0.5-0.6-1.1-1.2-1.6-1.7c-1.9-2.2-3.8-4.4-5.6-6.7c-0.4-4.3-0.6-8.7-0.6-13.2
			c0-4.4,0.2-8.8,0.6-13.2c0.2-1.8,0.4-3.7,0.6-5.5c0.2-1.7,0.5-3.5,0.8-5.2c0.1-0.5,0.2-1,0.3-1.5c0.6-3.3,1.3-6.5,2-9.8
			c1-4,2.1-7.9,3.4-11.8c1.4-4.2,3-8.3,4.8-12.3c0,0,0,0,0,0c0.5-1.2,1.1-2.4,1.6-3.6c0,0,0,0,0,0c0.3-0.5,0.6-1,0.9-1.5
			c1.5-2.4,3.4-4.5,5.6-6.2c2.1-1.7,4.4-3.1,7-4c2.6-1,5.3-1.6,8.2-1.7c0.3,0,0.5,0,0.8,0h0c2,0.2,4,0.3,6,0.6c0,0,0.1,0,0.1,0
			c3.9,0.5,7.8,1.1,11.7,1.8c-1.2,0.4-2.4,0.9-3.6,1.4h0c-2.4,1-4.8,2-7.2,3.1c-0.7-0.1-1.4-0.2-2-0.2h0c-1.4-0.3-2.8-0.5-4.3-0.5
			c-0.1,0-0.2,0-0.4,0c0,0,0,0,0,0c0,0,0,0,0,0c-1.8,0-3.6,0.3-5.3,0.8v0c-3,0.9-5.8,2.5-8,4.6c0,0,0,0,0,0c-1.5,1.4-2.7,3-3.7,4.8
			c0,0.1-0.1,0.1-0.1,0.2c0,0,0,0,0,0c-0.5,0.9-0.9,1.7-1.2,2.7c-0.4,1-0.8,1.9-1.2,2.9c-1.5,3.7-2.9,7.5-4.2,11.4
			c-0.1,0.5-0.3,0.9-0.4,1.4c-1,3.1-1.8,6.3-2.5,9.5c-0.5,1.9-0.9,3.9-1.2,5.9c-0.3,1.5-0.5,3-0.8,4.5c-0.1,0.6-0.2,1.1-0.2,1.7
			c-0.9,6.5-1.4,13.2-1.4,19.9c0,6.8,0.5,13.4,1.4,19.9C76.6,99.9,76.7,100.5,76.8,101z"/>
		<path class="st0" d="M86.7,40.5c0.3-1.1,0.6-2.1,1-3.2v0c0.8-2.5,1.7-4.9,2.6-7.4c7.4-5.3,15.4-9.9,23.7-13.8
			c1.6-0.7,3.2-1.4,4.8-2.1c1.7-0.7,3.5-1.4,5.2-2.1c0.4-0.1,0.7-0.3,1.1-0.4c3.2-1.2,6.5-2.2,9.8-3.2c3.9-1.1,7.9-2.1,11.9-2.9
			c3.8-0.8,7.7-1.4,11.7-1.8c0,0,0.1,0,0.1,0c2-0.2,4-0.4,6-0.6h0c0.3,0,0.5,0,0.8,0h0c2.9,0.1,5.6,0.7,8.2,1.7c2.5,1,4.9,2.3,7,4
			c2.2,1.7,4.1,3.8,5.6,6.2c0.3,0.5,0.6,1,0.9,1.5c0,0,0,0,0,0c0.6,1.2,1.1,2.4,1.6,3.6c0,0,0,0,0,0c1.8,4,3.4,8.1,4.8,12.3
			c-1.1-0.9-2.1-1.8-3.2-2.6c-2-1.6-4-3.1-6.1-4.6h0c-0.4-1-0.8-1.9-1.2-2.9c-0.4-1-0.8-1.9-1.3-2.8c0,0,0,0,0,0
			c-1-1.8-2.2-3.4-3.7-4.8c0,0,0,0,0,0c-2.2-2.1-5-3.7-8-4.6c-1.7-0.5-3.5-0.8-5.3-0.8c0,0,0,0,0,0c0,0,0,0,0,0
			c-1.6,0.1-3.1,0.3-4.7,0.5c0,0,0,0,0,0c-0.7,0.1-1.4,0.2-2,0.3c-4,0.5-8,1.2-11.9,2c-0.6,0.1-1.2,0.3-1.7,0.4h0
			c-3.1,0.7-6.1,1.5-9.1,2.4c-2.1,0.6-4.1,1.3-6.1,2c-1.3,0.5-2.6,0.9-3.9,1.4c-0.7,0.3-1.3,0.5-2,0.8C110.6,24,99,30.8,88.6,39
			C88,39.5,87.4,40,86.7,40.5z"/>
	</g>
</g>
</svg>
